<mxfile host="65bd71144e">
    <diagram id="r0HbTSHkW0xsx2j_aVft" name="ページ1">
        <mxGraphModel dx="1444" dy="706" grid="1" gridSize="10" guides="1" tooltips="1" connect="1" arrows="1" fold="1" page="1" pageScale="1" pageWidth="827" pageHeight="1169" math="0" shadow="0">
            <root>
                <mxCell id="0"/>
                <mxCell id="1" parent="0"/>
                <mxCell id="2" style="edgeStyle=none;html=1;exitX=1;exitY=0.5;exitDx=0;exitDy=0;endArrow=open;endFill=0;" edge="1" parent="1" source="4">
                    <mxGeometry relative="1" as="geometry">
                        <mxPoint x="380" y="360.1428571428571" as="targetPoint"/>
                    </mxGeometry>
                </mxCell>
                <mxCell id="3" style="edgeStyle=none;html=1;exitX=0.5;exitY=0;exitDx=0;exitDy=0;startArrow=open;startFill=0;endArrow=none;endFill=0;" edge="1" parent="1" source="4">
                    <mxGeometry relative="1" as="geometry">
                        <mxPoint x="260.0952380952381" y="240" as="targetPoint"/>
                    </mxGeometry>
                </mxCell>
                <mxCell id="4" value="" style="rounded=0;whiteSpace=wrap;html=1;" vertex="1" parent="1">
                    <mxGeometry x="200" y="280" width="120" height="160" as="geometry"/>
                </mxCell>
                <mxCell id="6" value="" style="triangle;whiteSpace=wrap;html=1;rotation=-90;" vertex="1" parent="1">
                    <mxGeometry x="253.75" y="426.25" width="12.5" height="15" as="geometry"/>
                </mxCell>
                <mxCell id="7" style="edgeStyle=none;html=1;endArrow=none;endFill=0;startArrow=oval;startFill=0;rounded=0;curved=0;endSize=6;startSize=8;sourcePerimeterSpacing=0;shadow=0;targetPerimeterSpacing=0;exitX=-0.425;exitY=0.491;exitDx=0;exitDy=0;exitPerimeter=0;" edge="1" parent="1" source="6">
                    <mxGeometry relative="1" as="geometry">
                        <mxPoint x="260" y="480" as="targetPoint"/>
                        <mxPoint x="260" y="450" as="sourcePoint"/>
                    </mxGeometry>
                </mxCell>
                <mxCell id="8" value="&lt;font&gt;clock&lt;/font&gt;" style="text;html=1;align=center;verticalAlign=middle;resizable=0;points=[];autosize=1;strokeColor=none;fillColor=none;fontSize=18;fontFamily=Lucida Console;" vertex="1" parent="1">
                    <mxGeometry x="220" y="400" width="80" height="40" as="geometry"/>
                </mxCell>
                <mxCell id="11" value="&lt;font face=&quot;Lucida Console&quot;&gt;counterN_n&lt;/font&gt;" style="text;html=1;align=center;verticalAlign=middle;resizable=0;points=[];autosize=1;strokeColor=none;fillColor=none;fontSize=18;" vertex="1" parent="1">
                    <mxGeometry x="279" y="240" width="130" height="40" as="geometry"/>
                </mxCell>
                <mxCell id="13" value="&lt;font&gt;count&lt;/font&gt;" style="text;html=1;align=center;verticalAlign=middle;resizable=0;points=[];autosize=1;strokeColor=none;fillColor=none;fontSize=18;fontFamily=Lucida Console;" vertex="1" parent="1">
                    <mxGeometry x="380" y="340" width="80" height="40" as="geometry"/>
                </mxCell>
                <mxCell id="16" value="WIDTH" style="text;html=1;align=center;verticalAlign=middle;resizable=0;points=[];autosize=1;strokeColor=none;fillColor=none;fontSize=12;" vertex="1" parent="1">
                    <mxGeometry x="314" y="361.25" width="60" height="30" as="geometry"/>
                </mxCell>
                <mxCell id="17" value="" style="endArrow=none;html=1;" edge="1" parent="1">
                    <mxGeometry width="50" height="50" relative="1" as="geometry">
                        <mxPoint x="360" y="370" as="sourcePoint"/>
                        <mxPoint x="350" y="350" as="targetPoint"/>
                    </mxGeometry>
                </mxCell>
                <mxCell id="18" value="&lt;font&gt;reset&lt;/font&gt;" style="text;html=1;align=center;verticalAlign=middle;resizable=0;points=[];autosize=1;strokeColor=none;fillColor=none;fontSize=18;fontFamily=Lucida Console;" vertex="1" parent="1">
                    <mxGeometry x="220" y="280" width="80" height="40" as="geometry"/>
                </mxCell>
            </root>
        </mxGraphModel>
    </diagram>
</mxfile>